<svg xmlns="http://www.w3.org/2000/svg" viewBox="0 0 800 500" width="800" height="500">
  <rect width="800" height="500" fill="#2a3a5c"/>
  <rect x="200" y="180" width="400" height="250" fill="#3d5070" rx="4"/>
  <rect x="350" y="120" width="100" height="310" fill="#4a6080" rx="2"/>
  <rect x="370" y="80" width="60" height="50" fill="#4a6080" rx="2"/>
  <rect x="395" y="60" width="10" height="30" fill="#c9a84c"/>
  <circle cx="400" cy="55" r="6" fill="#c9a84c"/>
  <!-- janelas -->
  <rect x="240" y="220" width="30" height="40" fill="#1a1a2e" rx="2"/>
  <rect x="300" y="220" width="30" height="40" fill="#1a1a2e" rx="2"/>
  <rect x="470" y="220" width="30" height="40" fill="#1a1a2e" rx="2"/>
  <rect x="530" y="220" width="30" height="40" fill="#1a1a2e" rx="2"/>
  <rect x="240" y="300" width="30" height="40" fill="#1a1a2e" rx="2"/>
  <rect x="300" y="300" width="30" height="40" fill="#1a1a2e" rx="2"/>
  <rect x="470" y="300" width="30" height="40" fill="#1a1a2e" rx="2"/>
  <rect x="530" y="300" width="30" height="40" fill="#1a1a2e" rx="2"/>
  <!-- porta -->
  <rect x="375" y="360" width="50" height="70" fill="#1a1a2e" rx="4"/>
  <!-- chão -->
  <rect x="0" y="430" width="800" height="70" fill="#1e2d4d"/>
  <text x="400" y="480" text-anchor="middle" fill="#6a7a9c" font-size="14" font-family="Georgia">Convento de Mafra — Placeholder</text>
</svg>